<?xml version="1.0" encoding="UTF-8"?>
<svg width="1120px" height="512px" viewBox="0 0 1120 512" version="1.1" xmlns="http://www.w3.org/2000/svg" xmlns:xlink="http://www.w3.org/1999/xlink">
    <!-- Generator: Sketch 57.1 (83088) - https://sketch.com -->
    <title>logo_hex_full_invert</title>
    <desc>Created with Sketch.</desc>
    <defs>
        <linearGradient x1="56.0440876%" y1="15.5380571%" x2="46.2303189%" y2="85.3132418%" id="linearGradient-1">
            <stop stop-color="#7E56F7" offset="0%"></stop>
            <stop stop-color="#677CF6" offset="38.8503051%"></stop>
            <stop stop-color="#3DB0F0" offset="100%"></stop>
        </linearGradient>
        <radialGradient cx="46.7598488%" cy="44.8486747%" fx="46.7598488%" fy="44.8486747%" r="68.312646%" gradientTransform="translate(0.467598,0.448487),scale(1.000000,0.716000),rotate(-37.126745),scale(1.000000,1.616335),translate(-0.467598,-0.448487)" id="radialGradient-2">
            <stop stop-color="#D2D3E0" stop-opacity="0" offset="0%"></stop>
            <stop stop-color="#E2E3EC" stop-opacity="0.245350346" offset="42.6885382%"></stop>
            <stop stop-color="#E7E7EF" stop-opacity="0.362185169" offset="58.698425%"></stop>
            <stop stop-color="#FFFFFF" offset="100%"></stop>
        </radialGradient>
        <path d="M143,14.8853479 C143,8.49764156 145.538631,3.64034402 150.057334,1.38174068 C154.576037,-0.876862668 160.704775,-0.350722119 167.09508,2.84413133 C201.327073,19.9527016 263.672527,51.115026 297.90452,68.2235963 C304.296626,71.4184497 310.424563,77.0179455 314.943466,83.7937556 C319.46237,90.5695656 322,97.9655413 322,104.353248 L322,235.113778 C322,241.501885 319.46237,246.359582 314.943466,248.617985 C310.424563,250.876589 304.296626,250.351048 297.90452,247.156995 C263.672527,230.047425 201.327073,198.8859 167.09508,181.77653 C160.704775,178.582477 154.576037,172.981581 150.057334,166.205971 C145.538631,159.430561 143,152.035385 143,145.647279 L143,14.8853479 Z" id="path-3"></path>
        <linearGradient x1="56.0440876%" y1="15.5380571%" x2="46.2303189%" y2="85.3132418%" id="linearGradient-4">
            <stop stop-color="#5EE2E7" offset="0%"></stop>
            <stop stop-color="#99E7C4" offset="27.3977292%"></stop>
            <stop stop-color="#E6ED43" offset="100%"></stop>
        </linearGradient>
        <path d="M72,49.8853479 C72,43.4976416 74.538631,38.640344 79.057334,36.3817407 C83.5760371,34.1231373 89.7047746,34.6492779 96.0950801,37.8441313 C130.327073,54.9527016 192.672527,86.115026 226.90452,103.223596 C233.296626,106.41845 239.424563,112.017946 243.943466,118.793756 C248.46237,125.569566 251,132.965541 251,139.353248 L251,270.113778 C251,276.501885 248.46237,281.359582 243.943466,283.617985 C239.424563,285.876589 233.296626,285.351048 226.90452,282.156995 C192.672527,265.047425 130.327073,233.8859 96.0950801,216.77653 C89.7047746,213.582477 83.5760371,207.981581 79.057334,201.205971 C74.538631,194.430561 72,187.035385 72,180.647279 L72,49.8853479 Z" id="path-5"></path>
        <linearGradient x1="53.8006737%" y1="13.7426659%" x2="44.8212944%" y2="111.545525%" id="linearGradient-6">
            <stop stop-color="#F66B9F" offset="0%"></stop>
            <stop stop-color="#ED5F72" offset="24.8291603%"></stop>
            <stop stop-color="#E86B74" offset="48.9694012%"></stop>
            <stop stop-color="#EB8970" offset="72.2933319%"></stop>
            <stop stop-color="#F7C662" offset="100%"></stop>
        </linearGradient>
        <path d="M0,85.8853479 C0,79.4976416 2.53863096,74.640344 7.05733404,72.3817407 C11.5760371,70.1231373 17.7047746,70.6492779 24.0950801,73.8441313 C58.3270727,90.9527016 120.672527,122.115026 154.90452,139.223596 C161.296626,142.41845 167.424563,148.017946 171.943466,154.793756 C176.46237,161.569566 179,168.965541 179,175.353248 L179,306.113778 C179,312.501885 176.46237,317.359582 171.943466,319.617985 C167.424563,321.876589 161.296626,321.351048 154.90452,318.156995 C120.672527,301.047425 58.3270727,269.8859 24.0950801,252.77653 C17.7047746,249.582477 11.5760371,243.981581 7.05733404,237.205971 C2.53863096,230.430561 0,223.035385 0,216.647279 L0,85.8853479 Z" id="path-7"></path>
    </defs>
    <g id="Page-1" stroke="none" stroke-width="1" fill="none" fill-rule="evenodd">
        <g id="logo_hex_full_invert">
            <path d="M659.666667,258.338542 C659.666667,264.414961 658.776919,270.252576 656.997396,275.851562 C655.217873,281.450549 652.592031,286.376715 649.119792,290.630208 C645.126716,295.57815 640.330757,299.202245 634.731771,301.502604 C629.132785,303.802963 622.991353,304.953125 616.307292,304.953125 C609.536424,304.953125 603.286487,303.651055 597.557292,301.046875 C591.828096,298.442695 587.097241,294.579887 583.364583,289.458333 C576.593716,280.170092 573.208333,269.059092 573.208333,256.125 C573.208333,242.322848 576.637118,231.038238 583.494792,222.270833 C587.401061,217.322892 592.153618,213.59029 597.752604,211.072917 C603.35159,208.555543 609.536424,207.296875 616.307292,207.296875 C628.980966,207.296875 639.006908,211.159684 646.385417,218.885417 C650.986134,222.965298 654.197908,228.216982 656.020833,234.640625 L643.651042,237.114583 C642.17534,233.29512 640.395844,230.300358 638.3125,228.130208 C635.795126,225.265611 632.670158,223.052091 628.9375,221.489583 C625.204842,219.927076 621.211827,219.145833 616.958333,219.145833 C612.27081,219.145833 607.82207,220.100685 603.611979,222.010417 C599.401889,223.920148 595.994805,226.611094 593.390625,230.083333 C588.616296,236.333365 586.229167,245.013833 586.229167,256.125 C586.229167,261.333359 586.749995,266.107617 587.791667,270.447917 C588.833339,274.788216 590.699639,278.694427 593.390625,282.166667 C595.994805,285.638906 599.336785,288.30815 603.416667,290.174479 C607.496548,292.040808 611.836783,292.973958 616.4375,292.973958 C620.864605,292.973958 624.987828,292.236118 628.807292,290.760417 C632.626755,289.284715 635.838529,286.984391 638.442708,283.859375 C642.95662,278.651016 645.517358,272.140664 646.125,264.328125 L624.380208,264.328125 L624.380208,254.692708 L659.536458,254.692708 L659.666667,258.338542 Z M683.005208,303 L671.416667,303 L671.416667,207.296875 L683.005208,207.296875 L683.005208,303 Z M711.552083,207.557292 L711.552083,219.536458 L699.963542,219.536458 L699.963542,207.557292 L711.552083,207.557292 Z M711.552083,232.6875 L711.552083,303 L699.963542,303 L699.963542,232.6875 L711.552083,232.6875 Z M815.359375,236.333333 C818.658003,239.284737 820.763016,242.453108 821.674479,245.838542 C822.585942,249.223975 823.041667,253.868026 823.041667,259.770833 L822.911458,303 L811.322917,303 L811.453125,260.421875 C811.453125,256.515605 811.127607,253.45574 810.476562,251.242188 C809.825518,249.028635 808.414941,246.967023 806.244792,245.057292 C804.942702,243.842008 803.42362,242.887156 801.6875,242.192708 C799.95138,241.49826 798.171884,241.151042 796.348958,241.151042 C794.005197,241.151042 791.791677,241.628467 789.708333,242.583333 C787.62499,243.538199 785.888896,244.883672 784.5,246.619792 C783.111104,248.355911 782.177954,250.135408 781.700521,251.958333 C781.223088,253.781259 780.984375,255.907974 780.984375,258.338542 L780.984375,259.770833 L780.854167,303 L769.265625,303 L769.395833,260.421875 C769.395833,256.515605 769.070316,253.45574 768.419271,251.242188 C767.768226,249.028635 766.35765,246.967023 764.1875,245.057292 C762.88541,243.842008 761.366328,242.887156 759.630208,242.192708 C757.894089,241.49826 756.114592,241.151042 754.291667,241.151042 C751.947905,241.151042 749.734385,241.628467 747.651042,242.583333 C745.567698,243.538199 743.831604,244.883672 742.442708,246.619792 C741.053813,248.355911 740.120662,250.135408 739.643229,251.958333 C739.165796,253.781259 738.927083,255.907974 738.927083,258.338542 L738.927083,303 L727.208333,303 L727.208333,232.6875 L737.625,232.6875 L737.625,240.239583 C739.968762,237.28818 742.855018,234.987855 746.283854,233.338542 C749.712691,231.689228 753.380189,230.864583 757.286458,230.864583 C760.237862,230.864583 763.145819,231.320308 766.010417,232.231771 C768.875014,233.143234 771.305546,234.510408 773.302083,236.333333 C775.298621,238.069453 776.94791,240.109363 778.25,242.453125 C778.510418,241.932289 778.684027,241.628473 778.770833,241.541667 C781.027789,238.156233 783.979148,235.530391 787.625,233.664062 C791.270852,231.797734 795.177063,230.864583 799.34375,230.864583 C802.295154,230.864583 805.203111,231.320308 808.067708,232.231771 C810.932306,233.143234 813.362837,234.510408 815.359375,236.333333 Z M868.515625,230.734375 C874.852462,230.734375 880.407962,232.340262 885.182292,235.552083 C889.956621,238.763905 893.624119,243.169243 896.184896,248.768229 C898.745673,254.367215 900.026042,260.682257 900.026042,267.713542 C900.026042,274.744827 898.745673,281.081569 896.184896,286.723958 C893.624119,292.366348 889.978322,296.815088 885.247396,300.070312 C880.516469,303.325537 874.939268,304.953125 868.515625,304.953125 C860.095444,304.953125 853.194471,302.131973 847.8125,296.489583 L847.8125,334.25 L836.09375,334.25 L836.09375,232.6875 L846.510417,232.6875 L846.510417,240.5 C851.892388,233.989551 859.227384,230.734375 868.515625,230.734375 Z M867.083333,294.276042 C873.767395,294.276042 878.86717,291.802108 882.382812,286.854167 C885.898455,281.906225 887.65625,275.526081 887.65625,267.713542 C887.65625,259.901003 885.876754,253.542559 882.317708,248.638021 C878.758663,243.733482 873.550382,241.28125 866.692708,241.28125 C860.095453,241.28125 855.082482,243.668379 851.653646,248.442708 C848.224809,253.217038 846.510417,259.640585 846.510417,267.713542 C846.510417,275.786499 848.224809,282.231747 851.653646,287.049479 C855.082482,291.867212 860.22566,294.276042 867.083333,294.276042 Z M952.010417,253.390625 C951.402775,249.310743 949.427968,246.229177 946.085938,244.145833 C942.743907,242.06249 938.72919,241.020833 934.041667,241.020833 C929.788173,241.020833 926.294285,241.88888 923.559896,243.625 C920.825507,245.36112 919.458333,247.618042 919.458333,250.395833 C919.458333,252.652789 920.282978,254.497389 921.932292,255.929688 C923.581605,257.361986 926.098941,258.555551 929.484375,259.510417 L939.770833,262.375 L943.026042,263.15625 C950.057327,264.979176 955.330712,267.388006 958.846354,270.382812 C962.361997,273.377619 964.119792,277.609348 964.119792,283.078125 C964.119792,290.022604 961.559053,295.404495 956.4375,299.223958 C951.315947,303.043422 944.675388,304.953125 936.515625,304.953125 C928.269056,304.953125 921.389785,303.217031 915.877604,299.744792 C910.365424,296.272552 906.914938,291.020868 905.526042,283.989583 L917.375,282.036458 C918.329866,286.203146 920.608489,289.328115 924.210938,291.411458 C927.813386,293.494802 932.088517,294.536458 937.036458,294.536458 C941.376758,294.536458 944.979152,293.581607 947.84375,291.671875 C950.708348,289.762143 952.140625,287.1146 952.140625,283.729167 C952.140625,280.777763 951.164072,278.585945 949.210938,277.153646 C947.257803,275.721347 944.154535,274.440978 939.901042,273.3125 C938.164922,272.791664 936.125012,272.227434 933.78125,271.619792 C934.21528,271.793404 931.220518,270.925357 924.796875,269.015625 C913.42529,265.803803 907.739583,259.770878 907.739583,250.916667 C907.739583,246.663173 908.97655,243.017376 911.450521,239.979167 C913.924492,236.940957 917.201368,234.640633 921.28125,233.078125 C925.361132,231.515617 929.788171,230.734375 934.5625,230.734375 C942.548651,230.734375 949.232612,232.578975 954.614583,236.268229 C959.996555,239.957484 963.078121,244.970454 963.859375,251.307292 L952.010417,253.390625 Z M983.291667,271.098958 C983.725697,278.217049 985.765607,283.794251 989.411458,287.830729 C993.05731,291.867208 998.135384,293.885417 1004.64583,293.885417 C1009.24655,293.885417 1013.28297,292.84376 1016.75521,290.760417 C1020.22745,288.677073 1022.91839,285.595507 1024.82812,281.515625 L1036.02604,285.421875 C1033.33506,291.5851 1029.23353,296.381059 1023.72135,299.809896 C1018.20917,303.238732 1012.02434,304.953125 1005.16667,304.953125 C998.222188,304.953125 992.145859,303.390641 986.9375,300.265625 C981.729141,297.140609 977.736125,292.800375 974.958333,287.244792 C972.180542,281.689208 970.791667,275.352466 970.791667,268.234375 C970.791667,260.76906 972.15884,254.215306 974.893229,248.572917 C977.627618,242.930527 981.55553,238.546891 986.677083,235.421875 C991.798637,232.296859 997.78816,230.734375 1004.64583,230.734375 C1015.58339,230.734375 1023.85153,234.401873 1029.45052,241.736979 C1035.04951,249.072085 1037.58854,258.859314 1037.06771,271.098958 L983.291667,271.098958 Z M1004.38542,241.151042 C998.222191,241.151042 993.404531,242.952239 989.932292,246.554688 C986.460052,250.157136 984.333337,255.126704 983.552083,261.463542 L1025.08854,261.463542 C1024.39409,254.77948 1022.37588,249.723107 1019.03385,246.294271 C1015.69182,242.865434 1010.80906,241.151042 1004.38542,241.151042 Z" id="text" fill="#FFFFFF" fill-rule="nonzero"></path>
            <g id="logo" transform="translate(22.000000, 8.000000)">
                <path d="M243.753341,2.53902353 C236.984285,-0.846341178 229.016918,-0.846341178 222.245858,2.53902353 C184.084253,21.61325 55.2078825,86.0293287 13.2924379,106.978526 C5.14592523,111.05098 0,119.37417 0,128.478597 C0,175.469062 0,320.530938 0,367.520802 C0,376.62583 5.14592523,384.949421 13.2924379,389.021273 C55.2078825,409.971673 184.084253,474.388152 222.245858,493.462178 C229.016918,496.845941 236.984285,496.845941 243.753341,493.462178 C281.914945,474.388152 410.79352,409.971673 452.708364,389.021273 C460.854075,384.949421 466,376.62583 466,367.520802 C466,320.530938 466,175.469062 466,128.478597 C466,119.37417 460.854075,111.05098 452.708364,106.978526 C410.79352,86.0293287 281.914945,21.61325 243.753341,2.53902353 Z" id="hexagon" fill="#FFFFFF"></path>
                <g id="_logo_src" transform="translate(72.000000, 88.000000)">
                    <g id="root">
                        <g id="frame_back" opacity="0.95">
                            <use fill="url(#linearGradient-1)" xlink:href="#path-3"></use>
                            <use fill-opacity="0.6" fill="url(#radialGradient-2)" xlink:href="#path-3"></use>
                        </g>
                        <g id="pic/moon" transform="translate(270.000000, 90.000000)" fill="#000000" opacity="0.79594494">
                            <path d="M1.75859327e-13,17.110352 C1.75859327e-13,5.39934185 5.46176723,-1.3871131 12.7511994,0.23898357 C11.6898058,2.90788075 11.0933226,6.24020854 11.0933226,10.1103503 C11.0933226,23.6002006 18.3403305,38.5159211 27.2799678,43.4255444 C28.4585041,44.0727932 29.6076227,44.5138252 30.7145972,44.7608553 C28.0757447,51.3939718 22.5615644,53.9266336 16.1866452,50.4255462 C7.24700791,45.5159228 1.75859327e-13,30.6002024 1.75859327e-13,17.110352 Z" id="moon"></path>
                        </g>
                        <g id="frame_mid" opacity="0.95">
                            <use fill="url(#linearGradient-4)" xlink:href="#path-5"></use>
                            <use fill-opacity="0.6" fill="url(#radialGradient-2)" xlink:href="#path-5"></use>
                        </g>
                        <path d="M212.757497,183.5 C217.647918,183.5 222.269797,185.736557 225.304442,189.571548 L250.999984,222.043969 L251,270.113778 C251,276.501885 248.46237,281.359582 243.943466,283.617985 C239.424563,285.876589 233.296626,285.351048 226.90452,282.156995 C192.672527,265.047425 130.327073,233.8859 96.0950801,216.77653 C89.7047746,213.582477 83.5760371,207.981581 79.057334,201.205971 C75.1972393,195.418088 72.782083,189.177937 72.1600591,183.499654 L212.757497,183.5 Z" id="picture_mid" fill="#000000" opacity="0.79594494"></path>
                        <g id="frame_front" opacity="0.95">
                            <use fill="url(#linearGradient-6)" xlink:href="#path-7"></use>
                            <use fill-opacity="0.6" fill="url(#radialGradient-2)" xlink:href="#path-7"></use>
                        </g>
                        <path d="M60.6834858,185.577818 L141.441766,311.428126 C106.093026,293.760301 54.2130147,267.829668 24.0950801,252.77653 C17.7047746,249.582477 11.5760371,243.981581 7.05733404,237.205971 C2.53863096,230.430561 0,223.035385 0,216.647279 L0,181.969571 L45.9330772,178.27049 C51.8218924,177.796223 57.4928475,180.605605 60.6834858,185.577818 Z" id="picture_front" fill="#000000" opacity="0.79594494"></path>
                    </g>
                </g>
            </g>
        </g>
    </g>
</svg>