<?xml version="1.0" encoding="UTF-8"?>
<svg width="1120px" height="512px" viewBox="0 0 1120 512" version="1.1" xmlns="http://www.w3.org/2000/svg" xmlns:xlink="http://www.w3.org/1999/xlink">
    <!-- Generator: Sketch 63 (92445) - https://sketch.com -->
    <title>logo_hex_full_invert</title>
    <desc>Created with Sketch.</desc>
    <defs>
        <linearGradient x1="56.3928531%" y1="20.1213071%" x2="47.5426466%" y2="82.1984788%" id="linearGradient-1">
            <stop stop-color="#7E56F7" offset="0%"></stop>
            <stop stop-color="#677CF6" offset="44.5254486%"></stop>
            <stop stop-color="#3DB0F0" offset="100%"></stop>
        </linearGradient>
        <radialGradient cx="46.7598488%" cy="44.8486747%" fx="46.7598488%" fy="44.8486747%" r="68.312646%" gradientTransform="translate(0.467598,0.448487),scale(1.000000,0.716000),rotate(-37.126745),scale(1.000000,1.616335),translate(-0.467598,-0.448487)" id="radialGradient-2">
            <stop stop-color="#D2D3E0" stop-opacity="0" offset="0%"></stop>
            <stop stop-color="#E2E3EC" stop-opacity="0.245350346" offset="42.6885382%"></stop>
            <stop stop-color="#E7E7EF" stop-opacity="0.362185169" offset="58.698425%"></stop>
            <stop stop-color="#FFFFFF" offset="100%"></stop>
        </radialGradient>
        <path d="M143,14.8853479 C143,8.49764156 145.538631,3.64034402 150.057334,1.38174068 C154.576037,-0.876862668 160.704775,-0.350722119 167.09508,2.84413133 C201.327073,19.9527016 263.672527,51.115026 297.90452,68.2235963 C304.296626,71.4184497 310.424563,77.0179455 314.943466,83.7937556 C319.46237,90.5695656 322,97.9655413 322,104.353248 L322,235.113778 C322,241.501885 319.46237,246.359582 314.943466,248.617985 C310.424563,250.876589 304.296626,250.351048 297.90452,247.156995 C263.672527,230.047425 201.327073,198.8859 167.09508,181.77653 C160.704775,178.582477 154.576037,172.981581 150.057334,166.205971 C145.538631,159.430561 143,152.035385 143,145.647279 L143,14.8853479 Z" id="path-3"></path>
        <linearGradient x1="53.3226482%" y1="18.4809865%" x2="47.818808%" y2="71.0852972%" id="linearGradient-4">
            <stop stop-color="#5EE2E7" offset="0%"></stop>
            <stop stop-color="#99E7C4" offset="41.5341969%"></stop>
            <stop stop-color="#E6ED43" offset="100%"></stop>
        </linearGradient>
        <path d="M72,49.8853479 C72,43.4976416 74.538631,38.640344 79.057334,36.3817407 C83.5760371,34.1231373 89.7047746,34.6492779 96.0950801,37.8441313 C130.327073,54.9527016 192.672527,86.115026 226.90452,103.223596 C233.296626,106.41845 239.424563,112.017946 243.943466,118.793756 C248.46237,125.569566 251,132.965541 251,139.353248 L251,270.113778 C251,276.501885 248.46237,281.359582 243.943466,283.617985 C239.424563,285.876589 233.296626,285.351048 226.90452,282.156995 C192.672527,265.047425 130.327073,233.8859 96.0950801,216.77653 C89.7047746,213.582477 83.5760371,207.981581 79.057334,201.205971 C74.538631,194.430561 72,187.035385 72,180.647279 L72,49.8853479 Z" id="path-5"></path>
        <linearGradient x1="56.0440876%" y1="15.5380571%" x2="46.2303189%" y2="85.3132418%" id="linearGradient-6">
            <stop stop-color="#F458BA" offset="0%"></stop>
            <stop stop-color="#EE767A" offset="51.5179513%"></stop>
            <stop stop-color="#FAD58A" offset="100%"></stop>
        </linearGradient>
        <path d="M0,85.8853479 C0,79.4976416 2.53863096,74.640344 7.05733404,72.3817407 C11.5760371,70.1231373 17.7047746,70.6492779 24.0950801,73.8441313 C58.3270727,90.9527016 120.672527,122.115026 154.90452,139.223596 C161.296626,142.41845 167.424563,148.017946 171.943466,154.793756 C176.46237,161.569566 179,168.965541 179,175.353248 L179,306.113778 C179,312.501885 176.46237,317.359582 171.943466,319.617985 C167.424563,321.876589 161.296626,321.351048 154.90452,318.156995 C120.672527,301.047425 58.3270727,269.8859 24.0950801,252.77653 C17.7047746,249.582477 11.5760371,243.981581 7.05733404,237.205971 C2.53863096,230.430561 0,223.035385 0,216.647279 L0,85.8853479 Z" id="path-7"></path>
    </defs>
    <g id="Page-1" stroke="none" stroke-width="1" fill="none" fill-rule="evenodd">
        <g id="logo_hex_full_invert">
            <path d="M660.1875,254.302083 C660.274306,254.909725 660.317708,256.342003 660.317708,258.598958 C660.317708,264.762184 659.384558,270.643201 657.518229,276.242188 C655.6519,281.841174 652.982656,286.723938 649.510417,290.890625 C645.604147,295.664954 640.829889,299.202245 635.1875,301.502604 C629.545111,303.802963 623.381978,304.953125 616.697917,304.953125 C609.840243,304.953125 603.546904,303.651055 597.817708,301.046875 C592.088513,298.442695 587.314255,294.623289 583.494792,289.588542 C576.637118,280.300301 573.208333,269.145898 573.208333,256.125 C573.208333,242.149236 576.680521,230.908029 583.625,222.401042 C587.53127,217.4531 592.327229,213.698798 598.013021,211.138021 C603.698813,208.577244 609.927049,207.296875 616.697917,207.296875 C628.937561,207.296875 638.703089,210.812465 645.994792,217.84375 C651.550375,222.618079 655.326379,228.781212 657.322917,236.333333 L642.609375,238.807292 C641.133673,234.72741 639.180568,231.515637 636.75,229.171875 C634.493044,226.654501 631.736995,224.723097 628.481771,223.377604 C625.226546,222.032111 621.732658,221.359375 618,221.359375 C613.399283,221.359375 609.080749,222.227422 605.044271,223.963542 C601.007792,225.699661 597.774318,228.2604 595.34375,231.645833 C590.829839,237.375029 588.572917,245.534669 588.572917,256.125 C588.572917,266.628525 590.829839,274.831568 595.34375,280.734375 C597.774318,284.033003 600.899286,286.550339 604.71875,288.286458 C608.538214,290.022578 612.618034,290.890625 616.958333,290.890625 C625.291708,290.890625 631.932267,288.243082 636.880208,282.947917 C639.050358,280.604155 640.764751,277.891508 642.023438,274.809896 C643.282124,271.728283 644.085068,268.538211 644.432292,265.239583 L623.729167,265.239583 L623.729167,254.302083 L660.1875,254.302083 Z M685.739583,303 L672.067708,303 L672.067708,207.296875 L685.739583,207.296875 L685.739583,303 Z M716.369792,207.557292 L716.369792,220.708333 L702.697917,220.708333 L702.697917,207.557292 L716.369792,207.557292 Z M716.369792,232.6875 L716.369792,303 L702.697917,303 L702.697917,232.6875 L716.369792,232.6875 Z M822.78125,236.723958 C825.906266,239.675362 827.924475,242.865434 828.835938,246.294271 C829.7474,249.723107 830.203125,254.258652 830.203125,259.901042 L830.203125,303 L816.401042,303 L816.53125,260.8125 C816.53125,257.34026 816.227434,254.584212 815.619792,252.544271 C815.01215,250.50433 813.796884,248.616328 811.973958,246.880208 C810.758674,245.664924 809.304696,244.731774 807.611979,244.080729 C805.919262,243.429684 804.161467,243.104167 802.338542,243.104167 C800.255198,243.104167 798.25869,243.516489 796.348958,244.341146 C794.439227,245.165803 792.789937,246.359367 791.401042,247.921875 C790.098952,249.571189 789.209204,251.26388 788.731771,253 C788.254338,254.73612 788.015625,256.732628 788.015625,258.989583 L788.015625,259.901042 L787.885417,303 L774.213542,303 L774.213542,260.8125 C774.213542,257.34026 773.909725,254.584212 773.302083,252.544271 C772.694441,250.50433 771.479176,248.616328 769.65625,246.880208 C768.440966,245.664924 767.008689,244.731774 765.359375,244.080729 C763.710061,243.429684 761.973967,243.104167 760.151042,243.104167 C757.980892,243.104167 755.940982,243.516489 754.03125,244.341146 C752.121518,245.165803 750.515632,246.359367 749.213542,247.921875 C747.824646,249.571189 746.891495,251.26388 746.414062,253 C745.93663,254.73612 745.697917,256.732628 745.697917,258.989583 L745.697917,303 L732.026042,303 L732.026042,232.6875 L744.135417,232.6875 L744.135417,240.369792 C746.479178,237.418388 749.408837,235.096363 752.924479,233.403646 C756.440122,231.710929 760.151022,230.864583 764.057292,230.864583 C767.095501,230.864583 770.111964,231.342009 773.106771,232.296875 C776.101577,233.251741 778.597212,234.727421 780.59375,236.723958 C782.243064,238.19966 783.718743,240.065961 785.020833,242.322917 L785.020833,242.192708 C787.277789,238.633663 790.315953,235.855913 794.135417,233.859375 C797.95488,231.862837 801.991298,230.864583 806.244792,230.864583 C809.283001,230.864583 812.299464,231.342009 815.294271,232.296875 C818.289077,233.251741 820.784712,234.727421 822.78125,236.723958 Z M876.067708,230.734375 C882.491352,230.734375 888.133656,232.340262 892.994792,235.552083 C897.855927,238.763905 901.61023,243.190944 904.257812,248.833333 C906.905395,254.475723 908.229167,260.812465 908.229167,267.84375 C908.229167,274.875035 906.927096,281.211777 904.322917,286.854167 C901.718737,292.496556 898.007837,296.923595 893.190104,300.135417 C888.372372,303.347238 882.751768,304.953125 876.328125,304.953125 C868.515586,304.953125 862.048637,302.652801 856.927083,298.052083 L856.927083,334.25 L843.255208,334.25 L843.255208,232.6875 L855.364583,232.6875 L855.364583,239.067708 C860.659749,233.512125 867.560721,230.734375 876.067708,230.734375 Z M874.505208,292.583333 C880.75524,292.583333 885.529497,290.283009 888.828125,285.682292 C892.126753,281.081574 893.776042,275.135453 893.776042,267.84375 C893.776042,260.552047 892.105051,254.605926 888.763021,250.005208 C885.42099,245.404491 880.494824,243.104167 873.984375,243.104167 C867.82115,243.104167 863.177099,245.317686 860.052083,249.744792 C856.927068,254.171897 855.364583,260.204823 855.364583,267.84375 C855.364583,275.482677 856.948769,281.515603 860.117188,285.942708 C863.285606,290.369814 868.081565,292.583333 874.505208,292.583333 Z M958.520833,253.911458 C957.913191,250.265607 956.133695,247.487857 953.182292,245.578125 C950.230888,243.668393 946.585091,242.713542 942.244792,242.713542 C938.512134,242.713542 935.430568,243.451382 933,244.927083 C930.569432,246.402785 929.354167,248.355891 929.354167,250.786458 C929.354167,252.782996 930.113708,254.432285 931.632812,255.734375 C933.151917,257.036465 935.387138,258.078121 938.338542,258.859375 C941.376751,259.814241 945.716986,260.986104 951.359375,262.375 C958.651078,264.197926 964.05467,266.650158 967.570312,269.731771 C971.085955,272.813383 972.84375,277.175319 972.84375,282.817708 C972.84375,289.762187 970.239609,295.18748 965.03125,299.09375 C959.822891,303.00002 953.095527,304.953125 944.848958,304.953125 C936.255165,304.953125 929.202285,303.173629 923.690104,299.614583 C918.177924,296.055538 914.77084,290.630245 913.46875,283.338542 L927.401042,281.125 C928.269102,285.03127 930.330713,287.982629 933.585938,289.979167 C936.841162,291.975704 940.769074,292.973958 945.369792,292.973958 C949.276061,292.973958 952.487835,292.149314 955.005208,290.5 C957.522582,288.850686 958.78125,286.50696 958.78125,283.46875 C958.78125,280.951376 957.891502,279.041673 956.111979,277.739583 C954.332456,276.437493 951.61981,275.26563 947.973958,274.223958 L932.088542,269.796875 C921.150987,266.671859 915.682292,260.508727 915.682292,251.307292 C915.682292,246.966992 916.94096,243.234391 919.458333,240.109375 C921.975707,236.984359 925.295986,234.640633 929.419271,233.078125 C933.542555,231.515617 938.034698,230.734375 942.895833,230.734375 C950.795178,230.734375 957.479139,232.578975 962.947917,236.268229 C968.416694,239.957484 971.585065,245.013857 972.453125,251.4375 L958.520833,253.911458 Z M993.96875,271.619792 C994.489586,278.043435 996.442691,283.056406 999.828125,286.658854 C1003.21356,290.261303 1007.85761,292.0625 1013.76042,292.0625 C1017.9271,292.0625 1021.5946,291.107648 1024.76302,289.197917 C1027.93144,287.288185 1030.38367,284.510435 1032.11979,280.864583 L1045.40104,285.161458 C1042.79686,291.324684 1038.69534,296.164045 1033.09635,299.679688 C1027.49737,303.19533 1021.31253,304.953125 1014.54167,304.953125 C1007.42358,304.953125 1001.21704,303.390641 995.921875,300.265625 C990.62671,297.140609 986.546889,292.822076 983.682292,287.309896 C980.817694,281.797715 979.385417,275.526077 979.385417,268.494792 C979.385417,261.029477 980.795993,254.43232 983.617188,248.703125 C986.438382,242.97393 990.431398,238.546891 995.596354,235.421875 C1000.76131,232.296859 1006.81594,230.734375 1013.76042,230.734375 C1024.26394,230.734375 1032.35848,234.119758 1038.04427,240.890625 C1043.73006,247.661492 1046.57292,256.68918 1046.57292,267.973958 C1046.57292,269.536466 1046.52951,270.751732 1046.44271,271.619792 L993.96875,271.619792 Z M1013.5,242.84375 C1007.94442,242.84375 1003.58248,244.427936 1000.41406,247.596354 C997.245644,250.764773 995.227435,255.126708 994.359375,260.682292 L1032.38021,260.682292 C1031.68576,254.779484 1029.86286,250.330744 1026.91146,247.335938 C1023.96005,244.341131 1019.48961,242.84375 1013.5,242.84375 Z" id="text" fill="#FFFFFF" fill-rule="nonzero"></path>
            <g id="logo" transform="translate(14.000000, 0.000000)">
                <path d="M226.668289,3.3837068 L17.7157485,107.82277 C12.2868622,110.536678 7.85827256,114.666709 4.78669786,119.634878 C1.7146508,124.603811 0,130.411143 0,136.478768 L0,375.520973 C0,381.588938 1.71467778,387.396532 4.78670941,392.365532 C7.85838951,397.333964 12.2871379,401.464001 17.7157156,404.177355 L226.66913,508.618257 C235.692789,513.127731 246.31006,513.127241 255.330402,508.61809 L464.28507,404.177363 C469.713489,401.463821 474.142043,397.333725 477.2136,392.365194 C480.285394,387.396278 482,381.588804 482,375.520973 L482,136.478768 C482,130.411276 480.285421,124.604064 477.213611,119.635216 C474.14216,114.666948 469.713765,110.536858 464.28579,107.823138 L255.330008,3.38325602 C246.310562,-1.12758197 235.692287,-1.1280723 226.668289,3.3837068 Z" id="hexagon_outline" fill="#FFFFFF"></path>
                <path d="M251.753341,10.5390235 C244.984285,7.15365882 237.016918,7.15365882 230.245858,10.5390235 C192.084253,29.61325 63.2078825,94.0293287 21.2924379,114.978526 C13.1459252,119.05098 8,127.37417 8,136.478597 C8,183.469062 8,328.530938 8,375.520802 C8,384.62583 13.1459252,392.949421 21.2924379,397.021273 C63.2078825,417.971673 192.084253,482.388152 230.245858,501.462178 C237.016918,504.845941 244.984285,504.845941 251.753341,501.462178 C289.914945,482.388152 418.79352,417.971673 460.708364,397.021273 C468.854075,392.949421 474,384.62583 474,375.520802 C474,328.530938 474,183.469062 474,136.478597 C474,127.37417 468.854075,119.05098 460.708364,114.978526 C418.79352,94.0293287 289.914945,29.61325 251.753341,10.5390235 Z" id="hexagon" fill="#000012"></path>
                <g id="_logo_src" transform="translate(80.000000, 96.000000)">
                    <g id="root">
                        <g id="frame_back" opacity="0.899576823">
                            <use fill="url(#linearGradient-1)" xlink:href="#path-3"></use>
                            <use fill-opacity="0.6" fill="url(#radialGradient-2)" xlink:href="#path-3"></use>
                        </g>
                        <g id="pic/moon" transform="translate(270.000000, 90.000000)" fill="#FFFFFF" opacity="0.897042411">
                            <path d="M1.75859327e-13,17.110352 C1.75859327e-13,5.39934185 5.46176723,-1.3871131 12.7511994,0.23898357 C11.6898058,2.90788075 11.0933226,6.24020854 11.0933226,10.1103503 C11.0933226,23.6002006 18.3403305,38.5159211 27.2799678,43.4255444 C28.4585041,44.0727932 29.6076227,44.5138252 30.7145972,44.7608553 C28.0757447,51.3939718 22.5615644,53.9266336 16.1866452,50.4255462 C7.24700791,45.5159228 1.75859327e-13,30.6002024 1.75859327e-13,17.110352 Z" id="moon"></path>
                        </g>
                        <g id="frame_mid" opacity="0.899576823">
                            <use fill="url(#linearGradient-4)" xlink:href="#path-5"></use>
                            <use fill-opacity="0.6" fill="url(#radialGradient-2)" xlink:href="#path-5"></use>
                        </g>
                        <path d="M212.757497,183.5 C217.647918,183.5 222.269797,185.736557 225.304442,189.571548 L250.999984,222.043969 L251,270.113778 C251,276.501885 248.46237,281.359582 243.943466,283.617985 C239.424563,285.876589 233.296626,285.351048 226.90452,282.156995 C192.672527,265.047425 130.327073,233.8859 96.0950801,216.77653 C89.7047746,213.582477 83.5760371,207.981581 79.057334,201.205971 C75.1972393,195.418088 72.782083,189.177937 72.1600591,183.499654 L212.757497,183.5 Z" id="picture_mid" fill="#FFFFFF" opacity="0.897042411"></path>
                        <g id="frame_front" opacity="0.899576823">
                            <use fill="url(#linearGradient-6)" xlink:href="#path-7"></use>
                            <use fill-opacity="0.6" fill="url(#radialGradient-2)" xlink:href="#path-7"></use>
                        </g>
                        <path d="M60.6834858,185.577818 L141.441766,311.428126 C106.093026,293.760301 54.2130147,267.829668 24.0950801,252.77653 C17.7047746,249.582477 11.5760371,243.981581 7.05733404,237.205971 C2.53863096,230.430561 0,223.035385 0,216.647279 L0,181.969571 L45.9330772,178.27049 C51.8218924,177.796223 57.4928475,180.605605 60.6834858,185.577818 Z" id="picture_front" fill="#FFFFFF" opacity="0.897042411"></path>
                    </g>
                </g>
            </g>
        </g>
    </g>
</svg>